<svg width="16" height="16" viewBox="0 0 16 16" fill="none" xmlns="http://www.w3.org/2000/svg">
<g clip-path="url(#clip0_3589_44384)">
<path d="M16 0V0.5C16 1.44792 15.9167 2.33333 15.75 3.15625C15.5833 3.97917 15.3255 4.75781 14.9766 5.49219C14.6276 6.22656 14.1953 6.92448 13.6797 7.58594C13.1641 8.2474 12.5547 8.89583 11.8516 9.53125L10.3594 14H8V12.2266C7.28125 12.6484 6.55469 13.0547 5.82031 13.4453L2.55469 10.1797C2.94531 9.44531 3.35156 8.71875 3.77344 8H2V5.64062L6.46875 4.15625C7.09896 3.45312 7.74479 2.84115 8.40625 2.32031C9.06771 1.79948 9.76823 1.36719 10.5078 1.02344C11.2474 0.679688 12.026 0.424479 12.8438 0.257812C13.6615 0.0911458 14.5469 0.00520833 15.5 0H16ZM4.35938 7C4.51042 6.76042 4.66146 6.52344 4.8125 6.28906C4.96354 6.05469 5.125 5.82292 5.29688 5.59375L3 6.35938V7H4.35938ZM6.00781 12.2031C6.27344 12.0521 6.53906 11.9036 6.80469 11.7578C7.07031 11.612 7.33594 11.4609 7.60156 11.3047L4.69531 8.39844C4.54427 8.66406 4.39583 8.92969 4.25 9.19531C4.10417 9.46094 3.95312 9.72917 3.79688 10L6.00781 12.2031ZM10.4062 10.7031C10.1771 10.8698 9.94531 11.0286 9.71094 11.1797C9.47656 11.3307 9.23958 11.4844 9 11.6406V13H9.64062L10.4062 10.7031ZM11.8359 8.14844C12.3516 7.63281 12.7995 7.10938 13.1797 6.57812C13.5599 6.04688 13.8828 5.48958 14.1484 4.90625C14.4141 4.32292 14.612 3.71094 14.7422 3.07031C14.8724 2.42969 14.9557 1.74219 14.9922 1.00781C14.263 1.03385 13.5781 1.11458 12.9375 1.25C12.2969 1.38542 11.6849 1.58594 11.1016 1.85156C10.5182 2.11719 9.95833 2.4375 9.42188 2.8125C8.88542 3.1875 8.35677 3.63542 7.83594 4.15625C7.32031 4.66146 6.84896 5.19271 6.42188 5.75C5.99479 6.30729 5.59375 6.89583 5.21875 7.51562L8.48438 10.7812C9.09896 10.4062 9.6849 10.0052 10.2422 9.57812C10.7995 9.15104 11.3307 8.67448 11.8359 8.14844ZM10 8C9.72396 8 9.46615 7.94792 9.22656 7.84375C8.98698 7.73958 8.77344 7.59635 8.58594 7.41406C8.39844 7.23177 8.25521 7.02083 8.15625 6.78125C8.05729 6.54167 8.00521 6.28125 8 6C8 5.72396 8.05208 5.46615 8.15625 5.22656C8.26042 4.98698 8.40365 4.77344 8.58594 4.58594C8.76823 4.39844 8.97917 4.25521 9.21875 4.15625C9.45833 4.05729 9.71875 4.00521 10 4C10.276 4 10.5339 4.05208 10.7734 4.15625C11.013 4.26042 11.2266 4.40365 11.4141 4.58594C11.6016 4.76823 11.7448 4.97917 11.8438 5.21875C11.9427 5.45833 11.9948 5.71875 12 6C12 6.27604 11.9479 6.53385 11.8438 6.77344C11.7396 7.01302 11.5964 7.22656 11.4141 7.41406C11.2318 7.60156 11.0208 7.74479 10.7812 7.84375C10.5417 7.94271 10.2812 7.99479 10 8ZM10 5C9.85938 5 9.72917 5.02604 9.60938 5.07812C9.48958 5.13021 9.38542 5.20052 9.29688 5.28906C9.20833 5.3776 9.13542 5.48438 9.07812 5.60938C9.02083 5.73438 8.99479 5.86458 9 6C9 6.14062 9.02604 6.27083 9.07812 6.39062C9.13021 6.51042 9.20052 6.61458 9.28906 6.70312C9.3776 6.79167 9.48438 6.86458 9.60938 6.92188C9.73438 6.97917 9.86458 7.00521 10 7C10.1406 7 10.2708 6.97396 10.3906 6.92188C10.5104 6.86979 10.6146 6.79948 10.7031 6.71094C10.7917 6.6224 10.8646 6.51562 10.9219 6.39062C10.9792 6.26562 11.0052 6.13542 11 6C11 5.85938 10.974 5.72917 10.9219 5.60938C10.8698 5.48958 10.7995 5.38542 10.7109 5.29688C10.6224 5.20833 10.5156 5.13542 10.3906 5.07812C10.2656 5.02083 10.1354 4.99479 10 5ZM2 12C2.27604 12 2.53385 12.0521 2.77344 12.1562C3.01302 12.2604 3.22656 12.4036 3.41406 12.5859C3.60156 12.7682 3.74479 12.9792 3.84375 13.2188C3.94271 13.4583 3.99479 13.7188 4 14C4 14.276 3.94792 14.5339 3.84375 14.7734C3.73958 15.013 3.59635 15.2266 3.41406 15.4141C3.23177 15.6016 3.02083 15.7448 2.78125 15.8438C2.54167 15.9427 2.28125 15.9948 2 16H0V14C0 13.724 0.0520833 13.4661 0.15625 13.2266C0.260417 12.987 0.403646 12.7734 0.585938 12.5859C0.768229 12.3984 0.979167 12.2552 1.21875 12.1562C1.45833 12.0573 1.71875 12.0052 2 12ZM2 15C2.14062 15 2.27083 14.974 2.39062 14.9219C2.51042 14.8698 2.61458 14.7995 2.70312 14.7109C2.79167 14.6224 2.86458 14.5156 2.92188 14.3906C2.97917 14.2656 3.00521 14.1354 3 14C3 13.8594 2.97396 13.7292 2.92188 13.6094C2.86979 13.4896 2.79948 13.3854 2.71094 13.2969C2.6224 13.2083 2.51562 13.1354 2.39062 13.0781C2.26562 13.0208 2.13542 12.9948 2 13C1.85938 13 1.72917 13.026 1.60938 13.0781C1.48958 13.1302 1.38542 13.2005 1.29688 13.2891C1.20833 13.3776 1.13542 13.4844 1.07812 13.6094C1.02083 13.7344 0.994792 13.8646 1 14V15H2Z" fill="#0078D4"/>
</g>
<defs>
<clipPath id="clip0_3589_44384">
<rect width="16" height="16" fill="white"/>
</clipPath>
</defs>
</svg>
