<svg id="a488dbf3-ad5e-4af9-9145-0c0ebf63f300" data-name="icon" xmlns="http://www.w3.org/2000/svg" xmlns:xlink="http://www.w3.org/1999/xlink" width="18" height="18" viewBox="0 0 18 18">
  <defs>
    <linearGradient id="a4fe8bdf-f139-48e2-9fad-1397651b037e" x1="12.282" y1="332.564" x2="12.282" y2="344" gradientTransform="matrix(1, 0, 0, -1, 0, 344)" gradientUnits="userSpaceOnUse">
      <stop offset="0" stop-color="#005ba1"/>
      <stop offset="0.525" stop-color="#0074cd"/>
      <stop offset="1" stop-color="#0078d4"/>
    </linearGradient>
    <linearGradient id="a187d02f-3f72-460b-856a-620d1ba676a4" x1="7.923" y1="326" x2="7.923" y2="340.871" gradientTransform="matrix(1, 0, 0, -1, 0, 344)" gradientUnits="userSpaceOnUse">
      <stop offset="0" stop-color="#0078d4"/>
      <stop offset="0.16" stop-color="#1380da"/>
      <stop offset="0.53" stop-color="#3c91e5"/>
      <stop offset="0.82" stop-color="#559cec"/>
      <stop offset="1" stop-color="#5ea0ef"/>
    </linearGradient>
    <linearGradient id="b42c9189-803e-467b-b4d4-02af22fcead6" x1="312.477" y1="-331.998" x2="312.477" y2="-337.001" gradientTransform="translate(-298 350)" gradientUnits="userSpaceOnUse">
      <stop offset="0" stop-color="#32bedd"/>
      <stop offset="0.175" stop-color="#32caea"/>
      <stop offset="0.41" stop-color="#32d2f2"/>
      <stop offset="0.775" stop-color="#32d4f5"/>
    </linearGradient>
    <radialGradient id="bc39ea8a-cb97-4e96-8a07-f860afda026c" cx="-107.222" cy="349.854" r="3.315" gradientTransform="matrix(1.036, 0, 0, -1.027, 117.307, 368.72)" gradientUnits="userSpaceOnUse">
      <stop offset="0.183" stop-color="#5ea0ef"/>
      <stop offset="1" stop-color="#0078d4"/>
    </radialGradient>
    <clipPath id="e9572d8b-03a4-40c8-8fe4-dfb11b224244">
      <path d="M9.574,8.627A3.416,3.416,0,1,1,5.457,6.1h0A3.416,3.416,0,0,1,9.574,8.627Z" fill="none"/>
    </clipPath>
  </defs>
  <rect x="6.564" width="11.436" height="11.436" rx="1" fill="url(#a4fe8bdf-f139-48e2-9fad-1397651b037e)"/>
  <rect y="3.129" width="15.846" height="14.871" rx="1" fill="url(#a187d02f-3f72-460b-856a-620d1ba676a4)"/>
  <g>
    <path d="M18,16.433a1.578,1.578,0,0,0-1.371-1.519A2,2,0,0,0,14.569,13a2.056,2.056,0,0,0-1.958,1.333,1.893,1.893,0,0,0-1.658,1.819A1.916,1.916,0,0,0,12.935,18h3.377a.393.393,0,0,0,.084,0A1.608,1.608,0,0,0,18,16.433Z" fill="url(#b42c9189-803e-467b-b4d4-02af22fcead6)"/>
    <path d="M13.352,15.542l1.164-1.177a.135.135,0,0,1,.191,0h0l1.164,1.177a.059.059,0,0,1,.009.082.057.057,0,0,1-.054.022h-.715a.063.063,0,0,0-.063.063h0v1.443a.045.045,0,0,1-.04.049H14.22a.049.049,0,0,1-.05-.048h0V15.7a.058.058,0,0,0-.049-.063h-.728a.058.058,0,0,1-.05-.065h0A.052.052,0,0,1,13.352,15.542Z" fill="#f2f2f2"/>
  </g>
  <g>
    <path d="M2.886,7.366a.1.1,0,0,1-.1-.1h0A1.121,1.121,0,0,0,1.669,6.15a.1.1,0,0,1-.1-.1h0a.1.1,0,0,1,.1-.1h0A1.12,1.12,0,0,0,2.788,4.835a.1.1,0,0,1,.1-.1h0a.1.1,0,0,1,.1.1h0A1.121,1.121,0,0,0,4.1,5.954a.1.1,0,0,1,.1.1h0a.1.1,0,0,1-.1.1h0A1.119,1.119,0,0,0,2.983,7.268.1.1,0,0,1,2.886,7.366Z" fill="#50e6ff"/>
    <path d="M9.932,14.152a.078.078,0,0,1-.079-.078h0a.9.9,0,0,0-.894-.895A.078.078,0,0,1,8.88,13.1h0a.078.078,0,0,1,.079-.078h0a.9.9,0,0,0,.894-.895.078.078,0,0,1,.079-.078h0a.078.078,0,0,1,.078.078h0a.9.9,0,0,0,.895.895.08.08,0,0,1,.079.078.079.079,0,0,1-.079.079h0a.9.9,0,0,0-.895.895A.077.077,0,0,1,9.932,14.152Z" fill="#50e6ff"/>
    <g>
      <path d="M9.574,8.627A3.416,3.416,0,1,1,5.457,6.1h0A3.416,3.416,0,0,1,9.574,8.627Z" fill="url(#bc39ea8a-cb97-4e96-8a07-f860afda026c)"/>
      <g clip-path="url(#e9572d8b-03a4-40c8-8fe4-dfb11b224244)">
        <g>
          <path d="M4.419,11.736a.912.912,0,1,0,.048-1.823H4.422a.679.679,0,0,0,0-.078A.919.919,0,0,0,3.5,8.924H2.818a3.476,3.476,0,0,0,.888,2.812Z" fill="#f2f2f2"/>
          <path d="M9.617,8.785a.051.051,0,0,0,0-.024,3.332,3.332,0,0,0-.783-1.6,1.112,1.112,0,0,0-.161-.05A1.006,1.006,0,0,0,7.426,7.8a1.046,1.046,0,0,0-.037.235,1.036,1.036,0,0,0-.112-.007A.967.967,0,0,0,6.954,9.9a.8.8,0,0,0,.3.056h1.13A7.53,7.53,0,0,0,9.617,8.785Z" fill="#f2f2f2"/>
        </g>
      </g>
    </g>
    <path d="M10.811,6.568c-.35-.583-1.169-.81-2.313-.64a8.2,8.2,0,0,0-1.159.252,3.591,3.591,0,0,1,.851.427c.134-.03.269-.065.4-.084a4.2,4.2,0,0,1,.614-.05,1.218,1.218,0,0,1,1.091.4h0c.213.355.033.962-.494,1.67A9.309,9.309,0,0,1,7.155,10.8a9.317,9.317,0,0,1-3.242,1.259c-.871.131-1.493,0-1.706-.354s-.034-.963.493-1.667c.065-.087.081-.13.155-.218a3.539,3.539,0,0,1,.015-.908,6.393,6.393,0,0,0-.651.764c-.69.923-.877,1.752-.528,2.335a1.761,1.761,0,0,0,1.615.7,4.632,4.632,0,0,0,.7-.055,9.95,9.95,0,0,0,3.462-1.336A9.916,9.916,0,0,0,10.282,8.9C10.974,7.98,11.161,7.151,10.811,6.568Z" fill="#50e6ff"/>
  </g>
</svg>
