<svg width="12" height="12" viewBox="0 0 12 12" fill="none" xmlns="http://www.w3.org/2000/svg">
<path d="M12 6C12 9.31371 9.31371 12 6 12C2.68629 12 0 9.31371 0 6C0 2.68629 2.68629 0 6 0C9.31371 0 12 2.68629 12 6ZM0.75 6C0.75 8.8995 3.10051 11.25 6 11.25C8.8995 11.25 11.25 8.8995 11.25 6C11.25 3.10051 8.8995 0.75 6 0.75C3.10051 0.75 0.75 3.10051 0.75 6Z" fill="#C7E0F4"/>
<path d="M11.7956 7.55291C12.2074 6.01584 11.9918 4.37811 11.1962 3C10.4005 1.62189 9.08999 0.616304 7.55291 0.204445L7.3588 0.928889C8.70374 1.28927 9.85044 2.16916 10.5466 3.375C11.2428 4.58084 11.4315 6.01386 11.0711 7.3588L11.7956 7.55291Z" fill="#0078D4"/>
</svg>
