<svg width="160" height="135" viewBox="0 0 160 135" fill="none" xmlns="http://www.w3.org/2000/svg">
<g opacity="0.3" clip-path="url(#clip0_831_35617)">
<path d="M151.111 0H67.2356C62.3264 0 58.3467 3.97969 58.3467 8.88889V92.7645C58.3467 97.6736 62.3264 101.653 67.2356 101.653H151.111C156.02 101.653 160 97.6736 160 92.7645V8.88889C160 3.97969 156.02 0 151.111 0Z" fill="url(#paint0_linear_831_35617)"/>
<path d="M131.964 27.8134H8.88889C3.97969 27.8134 0 31.793 0 36.7022V151.111C0 156.02 3.97969 160 8.88889 160H131.964C136.874 160 140.853 156.02 140.853 151.111V36.7022C140.853 31.793 136.874 27.8134 131.964 27.8134Z" fill="url(#paint1_linear_831_35617)"/>
<path d="M88.2844 67.0844V71.1111C87.9028 73.1111 87.6445 75.1327 87.5111 77.1644C87.4505 78.6615 87.6123 80.1592 87.9911 81.6088C88.2409 82.7479 88.2409 83.9276 87.9911 85.0666C87.9568 87.989 87.1271 90.8469 85.5911 93.3333C85.5733 93.5551 85.5733 93.7781 85.5911 94L86.5511 95.1555C90.8804 87.9829 94.3022 80.3004 96.7378 72.2844C99.4044 63.1555 99.7155 56.6222 97.6267 53.8311C94.5923 50.1045 90.5408 47.3395 85.9647 45.8719C81.3885 44.4044 76.4846 44.2976 71.8489 45.5644C75.1143 47.1919 78.0736 49.3722 80.5956 52.0088C82.813 53.8861 84.6348 56.1858 85.9548 58.774C87.2749 61.3622 88.0668 64.1872 88.2844 67.0844ZM85.3333 67.8577C82.7777 67.2423 80.0865 67.5575 77.7422 68.7466C74.9511 70.5244 75.8133 74.0799 77.7422 78.3555C78.6955 81.1441 79.8176 83.8721 81.1022 86.5244L81.9911 88.0622C82.4711 88.8355 82.7644 89.5022 83.0489 89.9822L83.8222 91.2355C84.9384 89.3509 85.5335 87.2035 85.5467 85.0133C85.6089 83.9564 85.6089 82.8968 85.5467 81.84C85.6453 80.2568 85.4831 78.6683 85.0667 77.1377C85.1989 74.9145 85.4571 72.7006 85.84 70.5066C85.5899 69.5434 85.5385 68.5393 85.6889 67.5555L85.3333 67.8577ZM82.4444 71.7955C81.9638 72.2613 81.3691 72.5924 80.72 72.7555C80.2749 72.8533 79.8139 72.8533 79.3689 72.7555C79.1267 72.5224 78.9407 72.2371 78.8252 71.9213C78.7097 71.6056 78.6676 71.2677 78.7022 70.9333C78.7022 70.2577 79.76 69.6799 81.0044 69.4844H82.8356C82.8356 69.4844 83.7244 69.4844 83.7244 70.2577C83.6681 70.5156 83.5603 70.7596 83.4076 70.9749C83.2549 71.1902 83.0603 71.3726 82.8356 71.5111L82.4444 71.7955ZM37.3333 80.3466V78.7111C37.3778 78.1697 37.3778 77.6257 37.3333 77.0844C37.04 73.8852 37.04 70.6658 37.3333 67.4666C37.9097 63.8454 38.8814 60.2982 40.2311 56.8888C41.3632 53.4869 43.2713 50.395 45.8044 47.8577C41.5968 46.5949 37.2285 45.9482 32.8355 45.9377C29.0956 45.7716 25.3972 46.7785 22.2578 48.8177C19.8596 50.9896 18.0477 53.7311 16.9896 56.7888C15.9316 59.8464 15.6615 63.1214 16.2044 66.3111C17.1292 73.6222 18.7392 80.8302 21.0133 87.84C24.2755 98.7911 28.0267 105.52 31.2978 106.578C32.7378 107.058 34.2755 106.578 35.8133 104.56C38.48 101.289 41.0044 98.5066 42.4444 96.8711C40.302 94.6943 38.7461 92.0101 37.9223 89.0691C37.0984 86.1281 37.0334 83.0262 37.7333 80.0533L37.3333 80.3466ZM39.8311 84.1955C39.7876 86.0057 39.9818 87.8137 40.4089 89.5733C40.9897 91.1179 41.8349 92.5496 42.9067 93.8044C43.8499 94.8267 44.9937 95.6437 46.2667 96.2044C47.4586 96.6914 48.7304 96.9536 50.0178 96.9777C50.4495 94.9522 51.1931 93.0061 52.2222 91.2088C53.0305 89.3686 53.7078 87.4735 54.2489 85.5377C54.5422 81.9882 54.5422 78.4206 54.2489 74.8711C54.3247 73.881 54.1312 72.8889 53.6889 72C53.6094 71.0287 53.2019 70.1134 52.5333 69.4044C51.7873 68.6765 50.8703 68.1478 49.8667 67.8666H47.92C46.3199 68.0626 44.7621 68.5158 43.3067 69.2088C42.2288 69.7225 41.1994 70.3324 40.2311 71.0311V77.9555C40.2755 78.4345 40.2755 78.9165 40.2311 79.3955V83.1466L39.8311 84.1955ZM46.2222 71.3155C47.0892 71.0367 48.0219 71.0367 48.8889 71.3155C49.5246 71.4036 50.1408 71.599 50.7111 71.8933C51.6 71.8933 51.68 72.9511 51.6 73.2355C51.3221 73.7408 50.9256 74.1709 50.4444 74.4888C50.2379 74.3803 50.0442 74.2491 49.8667 74.0977C49.2008 73.984 48.5866 73.6664 48.1089 73.1888C47.6313 72.7111 47.3137 72.0969 47.2 71.4311L46.2222 71.3155ZM53.3333 100.142C52.8689 100.202 52.4344 100.404 52.0889 100.72L50.7378 102.356C49.1111 104.373 48.4355 105.022 43.7244 106.009C42.82 106.096 41.9565 106.428 41.2267 106.969C41.9048 107.496 42.6959 107.858 43.5378 108.027C45.7867 108.747 48.2043 108.747 50.4533 108.027C51.8131 107.371 53.0755 106.531 54.2044 105.529C55.1347 104.757 55.805 103.717 56.1244 102.551C56.1607 102.064 56.094 101.575 55.9286 101.115C55.7632 100.656 55.5028 100.237 55.1644 99.8844C54.9629 99.7279 54.7236 99.6274 54.4707 99.593C54.2179 99.5587 53.9604 99.5917 53.7244 99.6888L53.3333 100.142ZM97.6444 100.142C94.14 101.44 90.2866 101.44 86.7822 100.142C86.3461 100 85.8762 100 85.44 100.142C84.7436 100.37 84.1592 100.852 83.8044 101.493C83.6622 102.481 83.6622 103.484 83.8044 104.471C87.341 105.266 91.0378 104.93 94.3733 103.511C96.1322 102.772 97.7071 101.655 98.9867 100.24L97.6444 100.142ZM74.5333 79.5822C73.1822 75.6355 71.2622 69.9733 76.2578 66.5066C78.8615 65.059 81.8837 64.5506 84.8178 65.0666C83.5599 60.9952 81.4647 57.2317 78.6667 54.0177L77.7067 53.0577L77.1378 52.4444C76.968 52.2302 76.7742 52.0364 76.56 51.8666C74.6565 50.1654 72.4772 48.8007 70.1156 47.8311C66.7569 46.3563 63.1162 45.6343 59.4489 45.7155C57.1567 45.5298 54.8532 45.8924 52.7289 46.7733C51.7356 47.0367 50.7686 47.3908 49.84 47.8311C46.5511 50.2398 44.0713 53.5907 42.7289 57.4399C41.7757 60.5896 41.1006 63.8168 40.7111 67.0844C43.6032 65.3596 46.9658 64.5913 50.32 64.8888C52.4541 65.0611 54.4327 66.0734 55.821 67.7034C57.2093 69.3334 57.8939 71.4478 57.7244 73.5822V73.6355C58.08 77.6959 58.08 81.7796 57.7244 85.8399C57.165 87.9214 56.4244 89.9499 55.5111 91.9022C54.9333 93.5288 54.1689 95.2622 53.7333 96.6044C54.4027 96.5634 55.0733 96.6624 55.7023 96.8951C56.3314 97.1277 56.905 97.4888 57.3867 97.9555C58.0485 98.617 58.5558 99.4167 58.8724 100.297C59.1889 101.178 59.3069 102.117 59.2178 103.049H59.4044V105.351C58.6923 113.243 59.4764 121.199 61.7155 128.8C62.2618 129.689 63.0644 130.393 64.0178 130.818C64.9011 131.41 65.9327 131.742 66.9956 131.778C68.7377 131.937 70.494 131.73 72.1507 131.168C73.8075 130.606 75.3278 129.702 76.6133 128.516C78.2591 126.794 79.2443 124.546 79.3956 122.169C80.0711 117.849 81.5111 105.831 81.7067 102.951C81.5457 101.482 81.857 100 82.5956 98.72C83.2164 97.7147 84.119 96.9141 85.1911 96.4177C80.6552 91.3463 77.1662 85.4285 74.9244 79.0044L74.5333 79.5822Z" fill="#E6E6E6"/>
<path d="M160 146.071C159.906 142.739 158.627 139.55 156.394 137.075C154.16 134.601 151.118 133.003 147.813 132.569C147.614 127.894 145.58 123.486 142.152 120.301C138.724 117.116 134.179 115.411 129.502 115.555C125.733 115.495 122.038 116.601 118.922 118.722C115.806 120.843 113.423 123.876 112.098 127.404C108.116 127.899 104.443 129.8 101.74 132.765C99.0378 135.73 97.4842 139.563 97.36 143.573C97.438 145.81 97.9559 148.008 98.8841 150.044C99.8123 152.08 101.133 153.914 102.77 155.439C104.406 156.965 106.328 158.153 108.424 158.935C110.521 159.718 112.75 160.08 114.987 160H144.996C145.244 160.027 145.494 160.027 145.742 160C149.465 159.992 153.037 158.532 155.7 155.931C158.362 153.33 159.905 149.792 160 146.071Z" fill="url(#paint2_linear_831_35617)"/>
<path d="M118.684 138.151L129.031 127.689C129.143 127.577 129.275 127.489 129.421 127.428C129.566 127.368 129.722 127.337 129.88 127.337C130.038 127.337 130.194 127.368 130.339 127.428C130.485 127.489 130.617 127.577 130.729 127.689L141.076 138.151C141.181 138.238 141.249 138.363 141.264 138.499C141.279 138.635 141.24 138.772 141.156 138.88C141.1 138.952 141.026 139.008 140.942 139.042C140.858 139.077 140.766 139.088 140.676 139.076H134.32C134.171 139.076 134.029 139.135 133.924 139.24C133.819 139.345 133.76 139.487 133.76 139.636V152.462C133.77 152.567 133.738 152.671 133.672 152.753C133.605 152.835 133.509 152.887 133.404 152.898H126.4C126.342 152.899 126.284 152.889 126.231 152.867C126.177 152.846 126.128 152.814 126.086 152.773C126.045 152.733 126.012 152.684 125.99 152.631C125.967 152.578 125.956 152.52 125.956 152.462V139.556C125.968 139.424 125.93 139.293 125.849 139.189C125.768 139.085 125.65 139.015 125.52 138.996H119.049C118.981 138.987 118.915 138.965 118.856 138.93C118.797 138.896 118.745 138.85 118.703 138.795C118.662 138.741 118.632 138.679 118.615 138.612C118.598 138.546 118.594 138.477 118.604 138.409C118.606 138.317 118.634 138.228 118.684 138.151Z" fill="#F2F2F2"/>
</g>
<defs>
<linearGradient id="paint0_linear_831_35617" x1="109.173" y1="101.653" x2="109.173" y2="0" gradientUnits="userSpaceOnUse">
<stop stop-color="#005BA1"/>
<stop offset="0.525" stop-color="#0074CD"/>
<stop offset="1" stop-color="#0078D4"/>
</linearGradient>
<linearGradient id="paint1_linear_831_35617" x1="70.4267" y1="160" x2="70.4267" y2="27.8134" gradientUnits="userSpaceOnUse">
<stop stop-color="#0078D4"/>
<stop offset="0.16" stop-color="#1380DA"/>
<stop offset="0.53" stop-color="#3C91E5"/>
<stop offset="0.82" stop-color="#559CEC"/>
<stop offset="1" stop-color="#5EA0EF"/>
</linearGradient>
<linearGradient id="paint2_linear_831_35617" x1="128.676" y1="160" x2="128.676" y2="115.564" gradientUnits="userSpaceOnUse">
<stop stop-color="#32BEDD"/>
<stop offset="0.175" stop-color="#32CAEA"/>
<stop offset="0.41" stop-color="#32D2F2"/>
<stop offset="0.775" stop-color="#32D4F5"/>
</linearGradient>
<clipPath id="clip0_831_35617">
<rect width="160" height="160" fill="white"/>
</clipPath>
</defs>
</svg>
