<svg width="18" height="18" viewBox="0 0 18 18" fill="none" xmlns="http://www.w3.org/2000/svg">
<path d="M8.99984 5.14031C5.45984 5.14031 2.58984 4.14031 2.58984 2.82031V15.1803C2.58984 16.4503 5.40984 17.4803 8.90984 17.5003H8.99984C12.5398 17.5003 15.4098 16.5003 15.4098 15.1803V2.82031C15.4098 4.11031 12.5398 5.14031 8.99984 5.14031Z" fill="url(#paint0_linear_1396_61201)"/>
<path d="M15.4098 2.82C15.4098 4.11 12.5398 5.14 8.99984 5.14C5.45984 5.14 2.58984 4.14 2.58984 2.82C2.58984 1.5 5.45984 0.5 8.99984 0.5C12.5398 0.5 15.4098 1.5 15.4098 2.82Z" fill="#E8E8E8"/>
<path d="M13.9201 2.63016C13.9201 3.45016 11.7101 4.11016 9.00008 4.11016C6.29008 4.11016 4.08008 3.45016 4.08008 2.63016C4.08008 1.81016 6.29008 1.16016 9.00008 1.16016C11.7101 1.16016 13.9201 1.82016 13.9201 2.63016Z" fill="#50E6FF"/>
<path d="M8.99937 2.99989C7.67965 2.966 6.3639 3.1588 5.10938 3.56989C6.36517 3.97301 7.68126 4.15571 8.99937 4.10989C10.3202 4.1486 11.6373 3.95221 12.8894 3.52989C11.6312 3.13796 10.3165 2.95883 8.99937 2.99989Z" fill="#198AB3"/>
<path d="M17.8959 16.96L14.6314 10.3855C14.3654 9.8715 13.6339 9.8715 13.3694 10.3855L10.1044 16.858C9.83836 17.372 10.1044 17.989 10.6359 17.989H17.3644C17.8959 18.091 18.1614 17.475 17.8959 16.96Z" fill="#DB7500"/>
<path d="M13.9999 17.2244C14.4 17.2244 14.7244 16.9 14.7244 16.4999C14.7244 16.0998 14.4 15.7754 13.9999 15.7754C13.5998 15.7754 13.2754 16.0998 13.2754 16.4999C13.2754 16.9 13.5998 17.2244 13.9999 17.2244Z" fill="white"/>
<path d="M13.2998 12L13.5498 15H14.4498L14.6998 12H13.2998Z" fill="white"/>
<defs>
<linearGradient id="paint0_linear_1396_61201" x1="2.58984" y1="10.1603" x2="15.4098" y2="10.1603" gradientUnits="userSpaceOnUse">
<stop stop-color="#005BA1"/>
<stop offset="0.07" stop-color="#0060A9"/>
<stop offset="0.36" stop-color="#0071C8"/>
<stop offset="0.52" stop-color="#0078D4"/>
<stop offset="0.64" stop-color="#0074CD"/>
<stop offset="0.82" stop-color="#006ABB"/>
<stop offset="1" stop-color="#005BA1"/>
</linearGradient>
</defs>
</svg>
