<svg width="18" height="16" viewBox="0 0 18 16" fill="none" xmlns="http://www.w3.org/2000/svg">
<path d="M9.17082 0L10.4586 0.2L11.6391 0.6L12.605 1.3L13.3562 2.2C13.5627 2.54239 13.7077 2.91397 13.7855 3.3C13.9091 3.69037 13.9812 4.09335 14.0001 4.5C13.9812 4.90665 13.9091 5.30963 13.7855 5.7C13.689 6.04912 13.5447 6.38521 13.3562 6.7L12.605 7.5C12.4121 7.78138 12.1557 8.02024 11.8537 8.2L11.1025 8.9L10.3513 9.6C10.1646 9.88026 10.0202 10.1831 9.92204 10.5C9.79993 10.8222 9.72766 11.1589 9.70741 11.5V13H8.63423V11.5C8.6531 11.0934 8.72517 10.6904 8.84887 10.3C8.94531 9.95088 9.08958 9.61479 9.27814 9.3L10.0294 8.5L10.7806 7.8L11.5318 7.1C11.8338 6.92024 12.0901 6.68138 12.283 6.4C12.4697 6.11974 12.6141 5.81691 12.7123 5.5C12.8344 5.17785 12.9067 4.84114 12.9269 4.5C12.9345 4.01666 12.8244 3.53802 12.605 3.1C12.4191 2.69834 12.1655 2.32698 11.8537 2C11.5028 1.70949 11.1043 1.47316 10.6733 1.3C10.2032 1.09554 9.68952 0.992976 9.17082 1C8.65212 0.992976 8.13845 1.09554 7.66838 1.3C7.23733 1.47316 6.8388 1.70949 6.48789 2C6.17612 2.32698 5.92251 2.69834 5.73667 3.1C5.51726 3.53802 5.40718 4.01666 5.41472 4.5H4.34155C4.36041 4.09335 4.43249 3.69037 4.55619 3.3C4.63392 2.91397 4.77893 2.54239 4.98545 2.2L5.73667 1.3L6.70253 0.6L7.88302 0.2L9.17082 0ZM8.63423 15H9.70741V16H8.63423V15Z" fill="#0078D4"/>
</svg>
