<svg width="32" height="32" viewBox="0 0 32 32" fill="none" xmlns="http://www.w3.org/2000/svg">
<path d="M5.45511 3.42216C5.45394 3.23656 5.48933 3.05254 5.55928 2.88062C5.62923 2.7087 5.73235 2.55224 5.86277 2.42017C5.99318 2.28811 6.14834 2.18302 6.31936 2.11092C6.49039 2.03881 6.67395 2.0011 6.85955 1.99994L28.632 1.99994C28.8176 2.0011 29.0012 2.03881 29.1722 2.11092C29.3432 2.18302 29.4984 2.28811 29.6288 2.42017C29.7592 2.55224 29.8623 2.7087 29.9323 2.88062C30.0022 3.05254 30.0376 3.23656 30.0364 3.42216V29.0222C30.0376 29.2078 30.0022 29.3918 29.9323 29.5637C29.8623 29.7356 29.7592 29.8921 29.6288 30.0241C29.4984 30.1562 29.3432 30.2613 29.1722 30.3334C29.0012 30.4055 28.8176 30.4432 28.632 30.4444H6.85955C6.67395 30.4432 6.49039 30.4055 6.31936 30.3334C6.14834 30.2613 5.99318 30.1562 5.86277 30.0241C5.73235 29.8921 5.62923 29.7356 5.55928 29.5637C5.48933 29.3918 5.45394 29.2078 5.45511 29.0222V3.42216Z" fill="url(#paint0_linear_2_3012)"/>
<path d="M22.7724 6.21414H12.7182C12.5471 6.22997 12.3891 6.31253 12.2785 6.44396C12.1679 6.57539 12.1135 6.74511 12.127 6.91636V9.3777C12.1135 9.54895 12.1679 9.71867 12.2785 9.8501C12.3891 9.98153 12.5471 10.0641 12.7182 10.0799H22.7724C22.943 10.0634 23.1002 9.98059 23.2103 9.84924C23.3204 9.71788 23.3744 9.54853 23.3608 9.3777V6.91636C23.3744 6.74553 23.3204 6.57618 23.2103 6.44482C23.1002 6.31347 22.943 6.23062 22.7724 6.21414Z" fill="#50E6FF"/>
<path d="M7.01867 18.1537H3.89422C3.68311 18.1315 3.47163 18.1924 3.30468 18.3235C3.13772 18.4546 3.02843 18.6456 3 18.856V19.5582C3.02843 19.7685 3.13772 19.9596 3.30468 20.0907C3.47163 20.2218 3.68311 20.2827 3.89422 20.2604H7.01867C7.22978 20.2827 7.44126 20.2218 7.60821 20.0907C7.77517 19.9596 7.88446 19.7685 7.91289 19.5582V18.856C7.88446 18.6456 7.77517 18.4546 7.60821 18.3235C7.44126 18.1924 7.22978 18.1315 7.01867 18.1537Z" fill="#BCBCBC"/>
<path d="M7.01867 24.1235H3.89422C3.68311 24.1012 3.47163 24.1621 3.30468 24.2932C3.13772 24.4243 3.02843 24.6153 3 24.8257V25.5279C3.02821 25.7384 3.13745 25.9295 3.30446 26.0607C3.47147 26.1918 3.68307 26.2526 3.89422 26.2302H7.01867C7.22982 26.2526 7.44142 26.1918 7.60843 26.0607C7.77544 25.9295 7.88467 25.7384 7.91289 25.5279V24.8257C7.88446 24.6153 7.77517 24.4243 7.60821 24.2932C7.44126 24.1621 7.22978 24.1012 7.01867 24.1235Z" fill="#BCBCBC"/>
<path d="M7.01867 6.21415H3.89422C3.68307 6.19166 3.47147 6.25246 3.30446 6.38361C3.13745 6.51476 3.02821 6.70591 3 6.91637V7.6186C3.02843 7.82897 3.13772 8.01998 3.30468 8.15109C3.47163 8.2822 3.68311 8.34308 3.89422 8.32082H7.01867C7.22978 8.34308 7.44126 8.2822 7.60821 8.15109C7.77517 8.01998 7.88446 7.82897 7.91289 7.6186V6.91637C7.88467 6.70591 7.77544 6.51476 7.60843 6.38361C7.44142 6.25246 7.22982 6.19166 7.01867 6.21415Z" fill="#BCBCBC"/>
<path d="M7.01867 12.1839H3.89422C3.68311 12.1617 3.47163 12.2225 3.30468 12.3536C3.13772 12.4848 3.02843 12.6758 3 12.8861V13.5884C3.02843 13.7987 3.13772 13.9897 3.30468 14.1208C3.47163 14.252 3.68311 14.3128 3.89422 14.2906H7.01867C7.22978 14.3128 7.44126 14.252 7.60821 14.1208C7.77517 13.9897 7.88446 13.7987 7.91289 13.5884V12.8861C7.88446 12.6758 7.77517 12.4848 7.60821 12.3536C7.44126 12.2225 7.22978 12.1617 7.01867 12.1839Z" fill="#BCBCBC"/>
<defs>
<linearGradient id="paint0_linear_2_3012" x1="17.7458" y1="30.4444" x2="17.7458" y2="1.99994" gradientUnits="userSpaceOnUse">
<stop stop-color="#005BA4"/>
<stop offset="0.201" stop-color="#0068BA"/>
<stop offset="0.424" stop-color="#0071CA"/>
<stop offset="0.673" stop-color="#0076D4"/>
<stop offset="1" stop-color="#0078D7"/>
</linearGradient>
</defs>
</svg>
