<svg width="67" height="69" viewBox="0 0 67 69" fill="none" xmlns="http://www.w3.org/2000/svg">
<path d="M66.0438 41.1075C65.6473 39.9067 64.6087 39.0704 63.2656 38.8697C62.6323 38.7752 61.907 38.8155 61.0487 38.9924C59.5527 39.3011 58.4428 39.4186 57.6328 39.4413C60.6902 34.2794 63.1762 28.393 64.6074 22.8519C66.9217 13.892 65.685 9.81027 64.2399 7.96401C60.4154 3.07716 54.8355 0.451902 48.104 0.371574C44.513 0.327664 41.3605 1.03667 39.716 1.54654C38.1849 1.27636 36.5385 1.12552 34.8111 1.09763C31.5729 1.04597 28.7118 1.75188 26.2671 3.20269C24.9137 2.745 22.7414 2.09979 20.2329 1.68808C14.3331 0.719491 9.57795 1.47421 6.09981 3.93133C1.88814 6.90631 -0.0642782 12.0752 0.296811 19.2944C0.411492 21.5865 1.69364 28.5603 3.71244 35.1741C4.87268 38.9756 6.10989 42.1324 7.38972 44.5578C9.20472 47.9969 11.1468 50.0222 13.327 50.7495C14.549 51.1566 16.7693 51.4417 19.1045 49.4968C19.4005 49.8553 19.7954 50.2115 20.3195 50.5424C20.9851 50.9621 21.7989 51.3051 22.6118 51.5084C25.541 52.2406 28.2849 52.0575 30.6257 51.031C30.6402 51.4474 30.6513 51.8452 30.6606 52.1887C30.6761 52.7458 30.6916 53.2921 30.712 53.803C30.8507 57.2574 31.0858 59.9433 31.7821 61.8227C31.8203 61.926 31.8717 62.0835 31.926 62.2507C32.2734 63.3143 32.8543 65.0949 34.3322 66.4894C35.8626 67.9341 37.7137 68.377 39.4092 68.377C40.2595 68.377 41.0707 68.2654 41.7823 68.1131C44.3187 67.5694 47.1994 66.7413 49.2833 63.774C51.2536 60.969 52.2113 56.7442 52.3846 50.0872C52.4071 49.899 52.4278 49.7192 52.4476 49.5479L52.489 49.1962L52.9531 49.237L53.0727 49.245C55.6561 49.3627 58.815 48.8149 60.755 47.9137C62.288 47.2024 67.2004 44.6089 66.0438 41.1075Z" fill="black"/>
<path d="M61.6266 41.7883C53.945 43.3729 53.4168 40.7721 53.4168 40.7721C61.5271 28.7376 64.9177 13.4616 61.992 9.72283C54.0098 -0.475756 40.1926 4.34755 39.962 4.47257L39.8878 4.486C38.3701 4.17088 36.6719 3.98336 34.7628 3.95211C31.2873 3.89529 28.6507 4.86336 26.6499 6.38055C26.6499 6.38055 2.00131 -3.77386 3.14786 19.1515C3.39169 24.0285 10.1382 56.0541 18.185 46.3809C21.1261 42.8436 23.9681 39.8529 23.9681 39.8529C25.3794 40.7905 27.0691 41.2688 28.8405 41.0971L28.9782 40.9803C28.9353 41.4194 28.9549 41.849 29.0332 42.3575C26.9601 44.6736 27.5695 45.0802 23.4254 45.9333C19.2321 46.7975 21.6954 48.3359 23.3038 48.7383C25.2536 49.2257 29.7644 49.9164 32.8122 45.6497L32.6908 46.1366C33.5029 46.7872 34.0732 50.3681 33.9776 53.6146C33.8821 56.8608 33.8183 59.0896 34.4581 60.8304C35.0984 62.5713 35.7361 66.4883 41.1839 65.3211C45.7358 64.3455 48.0947 61.8176 48.423 57.6008C48.6557 54.6031 49.1829 55.0463 49.216 52.366L49.6388 51.0973C50.1262 47.0336 49.7163 45.7225 52.5205 46.3324L53.2024 46.3923C55.2662 46.486 57.9679 46.0601 59.5535 45.3232C62.9676 43.7389 64.9926 41.0932 61.626 41.7883H61.6266Z" fill="#336791"/>
<path d="M28.0928 21.3325C27.4006 21.2362 26.7737 21.3253 26.4566 21.5655C26.2783 21.7006 26.2231 21.8571 26.2081 21.9648C26.1683 22.2502 26.3682 22.5658 26.4912 22.7286C26.8388 23.1893 27.3466 23.506 27.8493 23.5757C27.9221 23.5861 27.9947 23.5907 28.0667 23.5907C28.9049 23.5907 29.6671 22.938 29.7343 22.4563C29.8182 21.853 28.9423 21.4508 28.0928 21.3328V21.3325ZM51.0249 21.3516C50.9588 20.8787 50.1172 20.7439 49.3186 20.8549C48.521 20.966 47.7477 21.326 47.8123 21.8C47.8639 22.1686 48.5295 22.7978 49.3173 22.7978C49.384 22.7978 49.4511 22.7934 49.5188 22.7838C50.0447 22.711 50.4306 22.377 50.6139 22.1846C50.8929 21.8912 51.0546 21.5642 51.0249 21.3516Z" fill="white"/>
<path d="M64.1826 41.6081C63.8897 40.7224 62.947 40.4375 61.3807 40.7609C56.7302 41.7207 55.0647 41.0559 54.5179 40.6532C58.1327 35.1465 61.1064 28.4898 62.7106 22.2792C63.4705 19.3373 63.8902 16.6051 63.9246 14.3781C63.9626 11.9339 63.5462 10.1378 62.6876 9.04058C59.226 4.61736 54.1455 2.24471 47.9956 2.17962C43.7676 2.13209 40.1955 3.21407 39.503 3.51834C38.0447 3.1557 36.4549 2.93305 34.7241 2.90464C31.5503 2.85324 28.8067 3.61313 26.5353 5.16209C25.5486 4.79481 22.9988 3.91946 19.8804 3.41709C14.4894 2.54923 10.2054 3.20684 7.1483 5.3726C3.50046 7.95705 1.81641 12.5768 2.14263 19.1033C2.25241 21.299 3.50356 28.0538 5.47793 34.5227C8.07685 43.037 10.902 47.8569 13.8744 48.8485C14.2223 48.9645 14.6235 49.0456 15.0659 49.0456C16.1502 49.0456 17.4796 48.5569 18.8628 46.894C20.5498 44.8702 22.295 42.8955 24.096 40.9725C25.2645 41.5996 26.5482 41.9498 27.8611 41.985C27.8637 42.0193 27.867 42.0537 27.8701 42.0878C27.6441 42.3573 27.4228 42.6307 27.2063 42.9078C26.2966 44.0626 26.1073 44.3031 23.1791 44.906C22.3461 45.078 20.1338 45.5339 20.1013 47.0846C20.0662 48.779 22.7165 49.4906 23.0184 49.566C24.0707 49.8295 25.0845 49.9594 26.0513 49.9594C28.4025 49.9594 30.4716 49.1866 32.1252 47.6914C32.0743 53.7317 32.3262 59.6838 33.0514 61.4972C33.6455 62.9819 35.0966 66.6101 39.6802 66.6098C40.3528 66.6098 41.093 66.5316 41.9074 66.357C46.6912 65.3315 48.7686 63.2172 49.5722 58.5558C50.0022 56.0646 50.7402 50.1159 51.0873 46.925C51.8198 47.1536 52.7628 47.2582 53.7823 47.258C55.9086 47.258 58.3621 46.8062 59.9007 46.092C61.6292 45.2893 64.7483 43.3195 64.1826 41.6081ZM52.7905 20.0461C52.7747 20.988 52.6451 21.8432 52.5077 22.7359C52.3597 23.696 52.2067 24.6886 52.1683 25.8935C52.1303 27.0661 52.2767 28.2853 52.4183 29.4644C52.7045 31.8458 52.9981 34.2975 51.8614 36.7166C51.6726 36.382 51.5044 36.0362 51.3577 35.6811C51.2165 35.3386 50.9096 34.7885 50.4847 34.027C48.8319 31.0629 44.9615 24.1216 46.9428 21.2892C47.533 20.4462 49.0308 19.5793 52.7905 20.0461ZM48.2332 4.08709C53.7436 4.20875 58.1025 6.27016 61.1885 10.2137C63.5555 13.2386 60.9491 27.0021 53.4037 38.8759C53.3278 38.7794 53.2515 38.6833 53.1748 38.5874L53.0793 38.4681C55.0291 35.248 54.6478 32.062 54.3085 29.2373C54.169 28.0781 54.0372 26.9832 54.0708 25.9547C54.1054 24.8647 54.2496 23.9297 54.389 23.0257C54.5603 21.9117 54.7346 20.7589 54.6866 19.4001C54.7225 19.2575 54.737 19.0891 54.7181 18.8892C54.5954 17.5861 53.1077 13.6862 50.0753 10.1564C48.4166 8.22567 45.9977 6.06508 42.695 4.6078C44.1155 4.31335 46.0582 4.03879 48.2332 4.08709ZM17.3991 45.677C15.8751 47.5093 14.8229 47.158 14.4768 47.0428C12.2219 46.2907 9.60541 41.5247 7.29862 33.9671C5.30255 27.4277 4.13612 20.8519 4.04365 19.008C3.7523 13.1763 5.16592 9.11212 8.24551 6.92802C13.2574 3.37395 21.4973 5.50123 24.8084 6.58011C24.7608 6.62712 24.7112 6.67102 24.6642 6.71881C19.2308 12.2059 19.3597 21.5808 19.3732 22.154C19.3727 22.3751 19.3912 22.6881 19.4166 23.1187C19.5101 24.6955 19.6841 27.6302 19.2192 30.9537C18.7874 34.042 19.7394 37.0648 21.8308 39.2471C22.0454 39.4706 22.271 39.6834 22.5067 39.8845C21.5759 40.8815 19.5527 43.0863 17.3991 45.677ZM23.2052 37.9301C21.5196 36.1711 20.754 33.7246 21.1045 31.2171C21.5952 27.7064 21.4142 24.6488 21.3168 23.0061C21.3031 22.7762 21.291 22.5747 21.284 22.4159C22.0777 21.712 25.756 19.7413 28.3792 20.3423C29.5761 20.6164 30.3056 21.4315 30.6088 22.8335C32.1782 30.0923 30.8165 33.1176 29.7223 35.5489C29.4968 36.0497 29.2838 36.5232 29.1019 37.0129L28.9609 37.3915C28.6039 38.3488 28.2718 39.2388 28.0659 40.0839C26.2739 40.0788 24.5307 39.3132 23.2052 37.9298V37.9301ZM23.4802 47.7193C22.9569 47.5886 22.4863 47.3615 22.2102 47.1732C22.4409 47.0648 22.8513 46.917 23.5631 46.7703C27.008 46.0613 27.54 45.5607 28.7018 44.0856C28.9681 43.7473 29.2701 43.364 29.6882 42.897L29.6888 42.8965C30.3115 42.1991 30.5964 42.3174 31.113 42.5318C31.5317 42.7048 31.9395 43.2297 32.1048 43.8072C32.1831 44.08 32.2709 44.5976 31.9834 45.0005C29.5565 48.3986 26.02 48.3549 23.4802 47.7193ZM41.5086 64.4957C37.2944 65.3987 35.8022 63.2484 34.8189 60.7903C34.1843 59.2034 33.8723 52.0472 34.0936 44.1443C34.0965 44.0391 34.0815 43.9376 34.0526 43.8421C34.0267 43.6534 33.9873 43.4667 33.9348 43.2836C33.6057 42.1337 32.8037 41.1719 31.8416 40.7731C31.4593 40.6147 30.7578 40.3242 29.9148 40.5398C30.0945 39.7991 30.4063 38.9625 30.7444 38.0566L30.8862 37.6757C31.0458 37.2461 31.2462 36.8011 31.458 36.33C32.603 33.7863 34.1711 30.3022 32.4692 22.4314C31.8318 19.4832 29.703 18.0435 26.4759 18.378C24.5413 18.5782 22.7712 19.3587 21.8884 19.8064C21.6986 19.9025 21.525 19.9954 21.3628 20.0858C21.6092 17.1155 22.5401 11.5643 26.0223 8.0521C28.215 5.84114 31.1349 4.74909 34.6926 4.80798C41.7026 4.92266 46.1979 8.52012 48.7348 11.5181C50.921 14.1013 52.1047 16.7035 52.5771 18.1071C49.0244 17.7457 46.6081 18.447 45.3832 20.1982C42.7185 24.0075 46.841 31.4008 48.8224 34.954C49.1858 35.6052 49.4993 36.168 49.598 36.4072C50.2432 37.9709 51.0785 39.0149 51.6884 39.7768C51.8754 40.0103 52.0567 40.2369 52.1946 40.4347C51.1186 40.7449 49.1858 41.4617 49.3619 45.0444C49.2199 46.8421 48.2097 55.2587 47.6965 58.2324C47.019 62.161 45.5733 63.6242 41.5086 64.496V64.4957ZM59.0992 44.3656C57.9989 44.8763 56.1576 45.2593 54.4084 45.3417C52.4764 45.4321 51.4928 45.1253 51.2614 44.9364C51.1529 42.7038 51.9838 42.4705 52.8633 42.2236C53.0015 42.1849 53.1363 42.1469 53.2665 42.1015C53.3474 42.1673 53.4359 42.2327 53.5331 42.2967C55.0859 43.3216 57.8555 43.4322 61.7658 42.625L61.8087 42.6165C61.2812 43.1096 60.3788 43.7713 59.0992 44.3656Z" fill="white"/>
</svg>
