<svg width="32" height="32" viewBox="0 0 32 32" fill="none" xmlns="http://www.w3.org/2000/svg">
<g clip-path="url(#clip0_831_35643)">
<path d="M30.2222 0H13.4471C12.4653 0 11.6693 0.795938 11.6693 1.77778V18.5529C11.6693 19.5347 12.4653 20.3307 13.4471 20.3307H30.2222C31.2041 20.3307 32 19.5347 32 18.5529V1.77778C32 0.795938 31.2041 0 30.2222 0Z" fill="url(#paint0_linear_831_35643)"/>
<path d="M26.3929 5.56262H1.77778C0.795938 5.56262 0 6.35856 0 7.3404V30.2222C0 31.204 0.795938 32 1.77778 32H26.3929C27.3747 32 28.1707 31.204 28.1707 30.2222V7.3404C28.1707 6.35856 27.3747 5.56262 26.3929 5.56262Z" fill="url(#paint1_linear_831_35643)"/>
<path d="M17.6569 13.4169V14.2222C17.5806 14.6222 17.5289 15.0265 17.5022 15.4329C17.4901 15.7323 17.5225 16.0318 17.5982 16.3218C17.6482 16.5496 17.6482 16.7855 17.5982 17.0133C17.5914 17.5978 17.4254 18.1694 17.1182 18.6667C17.1147 18.711 17.1147 18.7556 17.1182 18.8L17.3102 19.0311C18.1761 17.5966 18.8604 16.0601 19.3476 14.4569V14.4569C19.8809 12.6311 19.9431 11.3244 19.5253 10.7662C18.9185 10.0209 18.1082 9.46789 17.1929 9.17439C16.2777 8.88088 15.2969 8.85951 14.3698 9.11288C15.0229 9.43839 15.6147 9.87445 16.1191 10.4018C16.5626 10.7772 16.927 11.2372 17.191 11.7548C17.455 12.2724 17.6134 12.8374 17.6569 13.4169V13.4169ZM17.0667 13.5715C16.5555 13.4485 16.0173 13.5115 15.5484 13.7493C14.9902 14.1049 15.1627 14.816 15.5484 15.6711C15.7391 16.2288 15.9635 16.7744 16.2204 17.3049L16.3982 17.6124C16.4942 17.7671 16.5529 17.9004 16.6098 17.9964L16.7644 18.2471C16.9877 17.8702 17.1067 17.4407 17.1093 17.0027C17.1218 16.7913 17.1218 16.5794 17.1093 16.368C17.1291 16.0514 17.0966 15.7337 17.0133 15.4275C17.0398 14.9829 17.0914 14.5401 17.168 14.1013C17.118 13.9087 17.1077 13.7079 17.1378 13.5111L17.0667 13.5715ZM16.4889 14.3591C16.3928 14.4523 16.2738 14.5185 16.144 14.5511V14.5511C16.055 14.5707 15.9628 14.5707 15.8738 14.5511C15.8253 14.5045 15.7881 14.4474 15.765 14.3843C15.7419 14.3211 15.7335 14.2535 15.7404 14.1867C15.7404 14.0515 15.952 13.936 16.2009 13.8969H16.5671C16.5671 13.8969 16.7449 13.8969 16.7449 14.0515C16.7336 14.1031 16.7121 14.1519 16.6815 14.195C16.651 14.238 16.6121 14.2745 16.5671 14.3022L16.4889 14.3591ZM7.46667 16.0693V15.7422C7.47556 15.6339 7.47556 15.5251 7.46667 15.4169C7.408 14.777 7.408 14.1332 7.46667 13.4933C7.58194 12.7691 7.77629 12.0596 8.04622 11.3778C8.27264 10.6974 8.65426 10.079 9.16089 9.57155C8.31937 9.31898 7.44571 9.18964 6.56711 9.18755C5.81912 9.15431 5.07945 9.3557 4.45156 9.76355C3.97192 10.1979 3.60954 10.7462 3.39793 11.3578C3.18632 11.9693 3.13231 12.6243 3.24089 13.2622C3.42584 14.7244 3.74785 16.166 4.20267 17.568C4.85511 19.7582 5.60533 21.104 6.25956 21.3155C6.54756 21.4115 6.85511 21.3155 7.16267 20.912C7.696 20.2578 8.20089 19.7013 8.48889 19.3742C8.06039 18.9389 7.74923 18.402 7.58445 17.8138C7.41968 17.2256 7.40668 16.6052 7.54667 16.0107L7.46667 16.0693ZM7.96622 16.8391C7.95752 17.2011 7.99637 17.5627 8.08178 17.9147C8.19794 18.2236 8.36698 18.5099 8.58133 18.7609C8.76998 18.9653 8.99874 19.1287 9.25333 19.2409C9.49172 19.3383 9.74608 19.3907 10.0036 19.3955C10.0899 18.9904 10.2386 18.6012 10.4444 18.2418C10.6061 17.8737 10.7416 17.4947 10.8498 17.1075C10.9084 16.3976 10.9084 15.6841 10.8498 14.9742C10.8649 14.7762 10.8262 14.5778 10.7378 14.4C10.7219 14.2057 10.6404 14.0227 10.5067 13.8809V13.8809C10.3575 13.7353 10.1741 13.6296 9.97333 13.5733H9.584C9.26399 13.6125 8.95242 13.7032 8.66133 13.8418C8.44576 13.9445 8.23989 14.0665 8.04622 14.2062V15.5911C8.05511 15.6869 8.05511 15.7833 8.04622 15.8791V16.6293L7.96622 16.8391ZM9.24444 14.2631C9.41785 14.2073 9.60437 14.2073 9.77778 14.2631C9.90492 14.2807 10.0282 14.3198 10.1422 14.3787C10.32 14.3787 10.336 14.5902 10.32 14.6471C10.2644 14.7482 10.1851 14.8342 10.0889 14.8978C10.0476 14.8761 10.0088 14.8498 9.97333 14.8195C9.84016 14.7968 9.71732 14.7333 9.62179 14.6378C9.52626 14.5422 9.46274 14.4194 9.44 14.2862L9.24444 14.2631ZM10.6667 20.0284C10.5738 20.0404 10.4869 20.0808 10.4178 20.144L10.1476 20.4711C9.82222 20.8747 9.68711 21.0044 8.74489 21.2018C8.56401 21.2191 8.39129 21.2855 8.24533 21.3938C8.38096 21.4991 8.53918 21.5715 8.70755 21.6053C9.15735 21.7493 9.64087 21.7493 10.0907 21.6053C10.3626 21.4743 10.6151 21.3062 10.8409 21.1058C11.0269 20.9513 11.161 20.7434 11.2249 20.5102C11.2322 20.4128 11.2188 20.315 11.1857 20.2231C11.1526 20.1312 11.1006 20.0473 11.0329 19.9769C10.9926 19.9456 10.9447 19.9255 10.8941 19.9186C10.8436 19.9117 10.7921 19.9183 10.7449 19.9378L10.6667 20.0284ZM19.5289 20.0284C18.828 20.2881 18.0573 20.2881 17.3564 20.0284C17.2692 20 17.1752 20 17.088 20.0284C16.9487 20.0739 16.8319 20.1705 16.7609 20.2987C16.7324 20.4962 16.7324 20.6967 16.7609 20.8942C17.4682 21.0531 18.2076 20.986 18.8747 20.7022C19.2264 20.5544 19.5414 20.331 19.7973 20.048L19.5289 20.0284ZM14.9067 15.9164C14.6364 15.1271 14.2524 13.9947 15.2516 13.3013C15.7723 13.0118 16.3767 12.9101 16.9636 13.0133C16.712 12.199 16.2929 11.4463 15.7333 10.8035L15.5413 10.6115L15.4276 10.4889C15.3936 10.446 15.3548 10.4073 15.312 10.3733V10.3733C14.9313 10.0331 14.4954 9.76014 14.0231 9.56621C13.3514 9.27127 12.6232 9.12685 11.8898 9.1431C11.4313 9.10596 10.9706 9.17848 10.5458 9.35466C10.3471 9.40735 10.1537 9.47816 9.968 9.56621C9.31022 10.048 8.81426 10.7181 8.54578 11.488C8.35515 12.1179 8.22011 12.7634 8.14222 13.4169C8.72065 13.0719 9.39316 12.9183 10.064 12.9778C10.4908 13.0122 10.8865 13.2147 11.1642 13.5407C11.4419 13.8667 11.5788 14.2896 11.5449 14.7164V14.7271C11.616 15.5392 11.616 16.3559 11.5449 17.168C11.433 17.5843 11.2849 17.99 11.1022 18.3804C10.9867 18.7058 10.8338 19.0524 10.7467 19.3209C10.8805 19.3127 11.0147 19.3325 11.1405 19.379C11.2663 19.4255 11.381 19.4978 11.4773 19.5911C11.6097 19.7234 11.7112 19.8833 11.7745 20.0594C11.8378 20.2355 11.8614 20.4235 11.8436 20.6098H11.8809V21.0702C11.7385 22.6486 11.8953 24.2397 12.3431 25.76C12.4524 25.9379 12.6129 26.0786 12.8036 26.1635C12.9802 26.2819 13.1866 26.3485 13.3991 26.3555C13.7475 26.3875 14.0988 26.3459 14.4302 26.2335C14.7615 26.1211 15.0656 25.9404 15.3227 25.7031C15.6518 25.3587 15.8489 24.9092 15.8791 24.4338C16.0142 23.5698 16.3022 21.1662 16.3413 20.5902C16.3091 20.2964 16.3714 20 16.5191 19.744C16.6433 19.5429 16.8238 19.3828 17.0382 19.2835C16.131 18.2693 15.4332 17.0857 14.9849 15.8009L14.9067 15.9164Z" fill="#E6E6E6"/>
<path d="M32 29.2142C31.9812 28.5478 31.7255 27.9099 31.2788 27.415C30.8321 26.9201 30.2237 26.6006 29.5627 26.5137C29.5229 25.5788 29.1161 24.6972 28.4305 24.0602C27.7449 23.4232 26.8358 23.0822 25.9004 23.1111C25.1467 23.0989 24.4076 23.3201 23.7844 23.7443C23.1613 24.1686 22.6846 24.7751 22.4196 25.4809C21.6233 25.5797 20.8886 25.9599 20.3481 26.5529C19.8076 27.146 19.4968 27.9126 19.472 28.7146C19.4876 29.1619 19.5912 29.6017 19.7768 30.0089C19.9625 30.4161 20.2265 30.7827 20.5539 31.0878C20.8813 31.3929 21.2656 31.6305 21.6849 31.787C22.1041 31.9435 22.5501 32.0159 22.9973 32H28.9991C29.0487 32.0053 29.0988 32.0053 29.1484 32C29.8929 31.9984 30.6074 31.7064 31.1399 31.1861C31.6725 30.6659 31.981 29.9584 32 29.2142V29.2142Z" fill="url(#paint2_linear_831_35643)"/>
<path d="M23.7369 27.6302L25.8062 25.5378C25.8285 25.5155 25.855 25.4978 25.8841 25.4857C25.9132 25.4736 25.9445 25.4674 25.976 25.4674C26.0075 25.4674 26.0388 25.4736 26.0679 25.4857C26.097 25.4978 26.1235 25.5155 26.1458 25.5378V25.5378L28.2151 27.6302C28.2363 27.6476 28.2498 27.6726 28.2528 27.6998C28.2558 27.7271 28.248 27.7544 28.2311 27.776C28.22 27.7904 28.2052 27.8016 28.1884 27.8085C28.1715 27.8154 28.1531 27.8176 28.1351 27.8151H26.864C26.8343 27.8151 26.8058 27.8269 26.7848 27.8479C26.7638 27.8689 26.752 27.8974 26.752 27.9271V27.9271V30.4924C26.754 30.5134 26.7476 30.5343 26.7343 30.5506C26.721 30.5669 26.7018 30.5773 26.6809 30.5796H25.28C25.2684 30.5798 25.2569 30.5777 25.2461 30.5734C25.2353 30.5692 25.2255 30.5628 25.2173 30.5547C25.209 30.5466 25.2024 30.5369 25.1979 30.5262C25.1934 30.5155 25.1911 30.504 25.1911 30.4924V27.9111C25.1937 27.8848 25.1861 27.8586 25.1699 27.8377C25.1537 27.8169 25.1301 27.8031 25.104 27.7991H23.8098C23.7962 27.7974 23.7831 27.7929 23.7712 27.7861C23.7594 27.7792 23.749 27.77 23.7407 27.7591C23.7324 27.7482 23.7264 27.7357 23.723 27.7224C23.7196 27.7092 23.7189 27.6953 23.7209 27.6818C23.7212 27.6634 23.7267 27.6455 23.7369 27.6302V27.6302Z" fill="#F2F2F2"/>
</g>
<defs>
<linearGradient id="paint0_linear_831_35643" x1="21.8347" y1="20.3307" x2="21.8347" y2="0" gradientUnits="userSpaceOnUse">
<stop stop-color="#005BA1"/>
<stop offset="0.525" stop-color="#0074CD"/>
<stop offset="1" stop-color="#0078D4"/>
</linearGradient>
<linearGradient id="paint1_linear_831_35643" x1="14.0853" y1="32" x2="14.0853" y2="5.56262" gradientUnits="userSpaceOnUse">
<stop stop-color="#0078D4"/>
<stop offset="0.16" stop-color="#1380DA"/>
<stop offset="0.53" stop-color="#3C91E5"/>
<stop offset="0.82" stop-color="#559CEC"/>
<stop offset="1" stop-color="#5EA0EF"/>
</linearGradient>
<linearGradient id="paint2_linear_831_35643" x1="25.7351" y1="32" x2="25.7351" y2="23.1129" gradientUnits="userSpaceOnUse">
<stop stop-color="#32BEDD"/>
<stop offset="0.175" stop-color="#32CAEA"/>
<stop offset="0.41" stop-color="#32D2F2"/>
<stop offset="0.775" stop-color="#32D4F5"/>
</linearGradient>
<clipPath id="clip0_831_35643">
<rect width="32" height="32" fill="white"/>
</clipPath>
</defs>
</svg>
