<svg width="16" height="16" viewBox="0 0 16 16" fill="none" xmlns="http://www.w3.org/2000/svg">
<path d="M15.98 1.86399C15.771 -0.621006 8.229 -0.621006 8.02 1.86399H8V4.65599H9V3.31599C9.93405 3.76804 10.9626 3.99022 12 3.96399C13.0374 3.99022 14.0659 3.76804 15 3.31599V6.96399C15 7.31699 13.861 7.96399 12 7.96399C11.541 7.96577 11.0829 7.92324 10.632 7.83699L10.438 8.81799C10.9527 8.91675 11.4759 8.96531 12 8.96299C13.987 8.96299 16 8.27599 16 6.96299V1.86299L15.98 1.86399ZM12 2.96399C10.139 2.96399 9 2.31799 9 1.96399C9 1.60999 10.139 0.963994 12 0.963994C13.861 0.963994 15 1.61199 15 1.96399C15 2.31599 13.861 2.96399 12 2.96399Z" fill="#0078D4"/>
<path d="M11 6.5C11 5.075 8.85 4 6 4C3.15 4 1 5.075 1 6.5V8.629L2 9.629V8.021C3.21405 8.71872 4.60095 9.05816 6 9C7.39905 9.05816 8.78595 8.71872 10 8.021V13.5C10 14.111 8.441 15 6 15C4.70679 15.0813 3.42194 14.7425 2.337 14.034L1.637 14.734C2.89952 15.6512 4.44261 16.099 6 16C8.851 16 11 14.926 11 13.5V6.5ZM6 8C3.559 8 2 7.112 2 6.5C2 5.888 3.559 5 6 5C8.441 5 10 5.889 10 6.5C10 7.111 8.441 8 6 8Z" fill="#0078D4"/>
<path d="M0.707 14.214L0 13.507L1.507 12L0 10.493L0.707 9.78601L2.921 12L0.707 14.214Z" fill="#0078D4"/>
</svg>
