<svg width="16" height="16" viewBox="0 0 16 16" fill="none" xmlns="http://www.w3.org/2000/svg">
<path d="M9.59996 10.4C10.1737 10.0352 10.6478 9.53353 10.9795 8.94002C11.3111 8.34651 11.49 7.67983 11.5 7C11.5 5.93913 11.0785 4.92172 10.3284 4.17157C9.57824 3.42143 8.56083 3 7.49996 3C6.4391 3 5.42168 3.42143 4.67153 4.17157C3.92139 4.92172 3.49996 5.93913 3.49996 7C3.50992 7.67983 3.68878 8.34651 4.02045 8.94002C4.35212 9.53353 4.82618 10.0352 5.39996 10.4C4.24984 10.8144 3.25682 11.5758 2.55818 12.5789C1.85953 13.5821 1.48976 14.7776 1.49996 16H2.49996C2.49996 14.6739 3.02675 13.4021 3.96443 12.4645C4.90211 11.5268 6.17388 11 7.49996 11C8.82604 11 10.0978 11.5268 11.0355 12.4645C11.9732 13.4021 12.5 14.6739 12.5 16H13.5C13.5102 14.7776 13.1404 13.5821 12.4417 12.5789C11.7431 11.5758 10.7501 10.8144 9.59996 10.4ZM4.49996 7C4.4866 6.61911 4.54845 6.23932 4.68197 5.88235C4.81549 5.52539 5.01807 5.19824 5.27812 4.91961C5.53817 4.64099 5.85058 4.41636 6.19751 4.25857C6.54443 4.10077 6.91906 4.01291 7.29996 4C7.36663 4 7.43329 4 7.49996 4C7.88085 3.98664 8.26064 4.04849 8.61761 4.18201C8.97458 4.31553 9.30173 4.51811 9.58035 4.77816C9.85897 5.0382 10.0836 5.35062 10.2414 5.69755C10.3992 6.04447 10.4871 6.4191 10.5 6.8C10.5 6.86667 10.5 6.93333 10.5 7C10.5133 7.38089 10.4515 7.76068 10.318 8.11765C10.1844 8.47462 9.98185 8.80176 9.7218 9.08039C9.46176 9.35901 9.14934 9.58364 8.80242 9.74143C8.45549 9.89923 8.08087 9.98709 7.69996 10C7.63329 10 7.56663 10 7.49996 10C7.11907 10.0134 6.73928 9.95151 6.38232 9.81799C6.02535 9.68447 5.6982 9.48189 5.41957 9.22184C5.14095 8.9618 4.91632 8.64938 4.75853 8.30245C4.60073 7.95553 4.51287 7.5809 4.49996 7.2C4.49996 7.13333 4.49996 7.06667 4.49996 7Z" fill="#0078D4"/>
<path d="M14.5 7C14.5267 6.1074 14.3773 5.2183 14.0603 4.38344C13.7434 3.54859 13.2651 2.78434 12.6528 2.13433C12.0404 1.48432 11.3061 0.961276 10.4917 0.595068C9.6772 0.228859 8.7986 0.0266543 7.906 0C7.771 0 7.635 0 7.5 0C6.03483 0.0318025 4.62829 0.581585 3.52993 1.55181C2.43157 2.52203 1.71239 3.84996 1.5 5.3C1.5 5.43261 1.55268 5.55979 1.64645 5.65355C1.74021 5.74732 1.86739 5.8 2 5.8C2.09374 5.81785 2.19063 5.8085 2.27923 5.77306C2.36782 5.73763 2.44443 5.67757 2.5 5.6C2.68072 4.37665 3.27585 3.25239 4.18592 2.41513C5.09599 1.57787 6.26586 1.07833 7.5 1C8.27483 0.986756 9.04468 1.12628 9.76557 1.41061C10.4865 1.69494 11.1443 2.11851 11.7015 2.65711C12.2586 3.19571 12.7042 3.8388 13.0128 4.54964C13.3214 5.26049 13.487 6.02517 13.5 6.8C13.5 6.868 13.5 6.935 13.5 7V8H9C8.86739 8 8.74021 8.05268 8.64645 8.14645C8.55268 8.24021 8.5 8.36739 8.5 8.5C8.5 8.63261 8.55268 8.75979 8.64645 8.85355C8.74021 8.94732 8.86739 9 9 9H14C14.1326 9 14.2598 8.94732 14.3536 8.85355C14.4473 8.75979 14.5 8.63261 14.5 8.5V7Z" fill="#0078D4"/>
</svg>
