<svg width="32" height="32" viewBox="0 0 32 32" fill="none" xmlns="http://www.w3.org/2000/svg">
<path d="M31.5839 27.84L18.5259 1.542C17.4619 -0.514 14.5359 -0.514 13.4779 1.542L0.417939 27.432C-0.646061 29.488 0.417939 31.956 2.54394 31.956H29.4579C31.5839 32.364 32.6459 29.9 31.5839 27.84Z" fill="#DB7500"/>
<path d="M16.0001 28.898C17.6006 28.898 18.8981 27.6005 18.8981 26C18.8981 24.3995 17.6006 23.102 16.0001 23.102C14.3995 23.102 13.1021 24.3995 13.1021 26C13.1021 27.6005 14.3995 28.898 16.0001 28.898Z" fill="white"/>
<path d="M13.2002 8L14.2002 20H17.8002L18.8002 8H13.2002Z" fill="white"/>
</svg>
