<svg width="16" height="16" viewBox="0 0 16 16" fill="none" xmlns="http://www.w3.org/2000/svg">
<g clip-path="url(#clip0_593_23944)">
<path d="M15.0135 7.27127C14.9888 6.52403 14.7002 5.80969 14.1991 5.25486C13.698 4.70003 13.0166 4.34056 12.2757 4.24016C12.2317 3.19639 11.7776 2.21215 11.0119 1.50141C10.2462 0.790674 9.23097 0.410885 8.18682 0.444603C7.34128 0.429665 6.51207 0.67841 5.81436 1.15629C5.11666 1.63417 4.58509 2.31746 4.29348 3.11127C3.40225 3.21902 2.57897 3.64209 1.97251 4.30398C1.36604 4.96588 1.01641 5.82292 0.986816 6.72016C1.02618 7.72936 1.46338 8.68195 2.20288 9.36982C2.94238 10.0577 3.92408 10.4249 4.93348 10.3913H5.28015H11.6802C11.7361 10.4006 11.7931 10.4006 11.849 10.3913C12.6786 10.3845 13.4729 10.055 14.0636 9.47262C14.6543 8.8902 14.995 8.10063 15.0135 7.27127V7.27127Z" fill="url(#paint0_linear_593_23944)"/>
<path d="M7.99998 9.25337C5.95553 9.25337 4.28442 8.72003 4.28442 8.07114V14.3734C4.28442 15.0223 5.92887 15.5467 7.95553 15.5556H7.99998C10.0533 15.5556 11.7155 15.0223 11.7155 14.3734V8.07114C11.7511 8.72003 10.0889 9.25337 7.99998 9.25337Z" fill="url(#paint1_linear_593_23944)"/>
<path d="M11.7512 8.07111C11.7512 8.72 10.089 9.25333 8.03562 9.25333C5.98229 9.25333 4.32007 8.72 4.32007 8.07111C4.32007 7.42222 5.99118 6.88889 8.00007 6.88889C10.009 6.88889 11.7156 7.41333 11.7156 8.07111" fill="#E8E8E8"/>
<path d="M10.8889 8.00005C10.8889 8.41783 9.60894 8.7556 8.03561 8.7556C6.46227 8.7556 5.19116 8.39116 5.19116 8.00005C5.19116 7.60894 6.47116 7.21783 8.00005 7.21783C9.52894 7.21783 10.8534 7.5556 10.8534 7.97338" fill="#50E6FF"/>
<path d="M7.99987 8.15091C7.24025 8.13304 6.48223 8.22891 5.75098 8.43536C6.48124 8.64735 7.23966 8.74627 7.99987 8.72869C8.76303 8.7469 9.52447 8.64797 10.2576 8.43536C9.52348 8.2283 8.76244 8.13242 7.99987 8.15091V8.15091Z" fill="#32BEDD"/>
<path d="M5.58235 4.44452L7.88457 2.13341C7.91019 2.10761 7.94065 2.08714 7.97421 2.07316C8.00778 2.05919 8.04377 2.05199 8.08013 2.05199C8.11648 2.05199 8.15248 2.05919 8.18604 2.07316C8.2196 2.08714 8.25007 2.10761 8.27568 2.13341L10.5779 4.44452C10.5928 4.46225 10.6025 4.48379 10.6059 4.50672C10.6092 4.52965 10.6061 4.55305 10.5968 4.5743C10.5876 4.59555 10.5726 4.6138 10.5536 4.62699C10.5345 4.64019 10.5122 4.6478 10.489 4.64897H9.07568C9.04268 4.64897 9.01103 4.66208 8.98769 4.68542C8.96435 4.70876 8.95124 4.74041 8.95124 4.77341V7.63564C8.95428 7.65668 8.94967 7.67812 8.93825 7.69606C8.92684 7.714 8.90937 7.72725 8.88902 7.73341H7.3068C7.29361 7.73481 7.28028 7.73325 7.26778 7.72883C7.25528 7.72441 7.24393 7.71725 7.23455 7.70788C7.22518 7.6985 7.21802 7.68715 7.2136 7.67465C7.20918 7.66215 7.20762 7.64882 7.20902 7.63564V4.76452C7.20969 4.73566 7.2003 4.70746 7.18246 4.68476C7.16462 4.66205 7.13944 4.64626 7.11124 4.64008H5.67124C5.64963 4.63785 5.62899 4.63 5.61135 4.61732C5.59372 4.60464 5.57971 4.58756 5.57072 4.56779C5.56174 4.54802 5.55808 4.52623 5.56012 4.50461C5.56216 4.48298 5.56982 4.46227 5.58235 4.44452Z" fill="#F2F2F2"/>
</g>
<defs>
<linearGradient id="paint0_linear_593_23944" x1="8.00015" y1="10.3913" x2="8.00015" y2="0.444603" gradientUnits="userSpaceOnUse">
<stop stop-color="#0078D4"/>
<stop offset="0.16" stop-color="#1380DA"/>
<stop offset="0.53" stop-color="#3C91E5"/>
<stop offset="0.82" stop-color="#559CEC"/>
<stop offset="1" stop-color="#5EA0EF"/>
</linearGradient>
<linearGradient id="paint1_linear_593_23944" x1="4.31998" y1="11.8134" x2="11.7511" y2="11.8134" gradientUnits="userSpaceOnUse">
<stop stop-color="#32BEDD"/>
<stop offset="0.06" stop-color="#37C5E3"/>
<stop offset="0.3" stop-color="#49DDF7"/>
<stop offset="0.45" stop-color="#50E6FF"/>
<stop offset="0.55" stop-color="#50E6FF"/>
<stop offset="0.7" stop-color="#49DDF7"/>
<stop offset="0.94" stop-color="#37C5E3"/>
<stop offset="1" stop-color="#32BEDD"/>
</linearGradient>
<clipPath id="clip0_593_23944">
<rect width="16" height="16" fill="white"/>
</clipPath>
</defs>
</svg>
